# xmcd
# 
# Track frame offsets:
#     150
#     17700
#     43126
#     69377
#     84827
#     102827
#     125853
#     145879
#     166729
#     184805
#     203705
#     228306
# 
# Disc length: 3300
# 
# Revision: 1
# Processed by: cddbd v1.5.2PL0 Copyright (c) Steve Scherf et al.
# Submitted via: fre:ac v1.0.17
# 
DISCID=9d0ce20c
DTITLE=Eddie Higgins - You Don't Know What Love Is
DYEAR=2003
DGENRE=Jazz
TTITLE0=When You Wish Upon A Star
TTITLE1=My Funny Valentine
TTITLE2=Detour Ahead
TTITLE3=Beautiful Love
TTITLE4=Dance Only With Me
TTITLE5=Danny Boy
TTITLE6=All This And Heaven Too
TTITLE7=Yellow Days
TTITLE8=Skylark
TTITLE9=Again
TTITLE10=You Don't Know What Love Is
TTITLE11=Over The Rainbow
EXTD=YEAR: 2003
EXTT0=
EXTT1=
EXTT2=
EXTT3=
EXTT4=
EXTT5=
EXTT6=
EXTT7=
EXTT8=
EXTT9=
EXTT10=
EXTT11=
PLAYORDER=
